<?xml version="1.0" encoding="utf-8"?>
<!-- Generator: Adobe Illustrator 22.1.0, SVG Export Plug-In . SVG Version: 6.00 Build 0)  -->
<svg version="1.1" id="Layer_1" xmlns="http://www.w3.org/2000/svg" xmlns:xlink="http://www.w3.org/1999/xlink" x="0px" y="0px"
	 viewBox="0 0 940 180" style="enable-background:new 0 0 940 180;" xml:space="preserve">
<style type="text/css">
	.st0{fill:#EF4023;}
	.st1{fill:#FFFFFF;}
</style>
<title>codeigniter</title>
<rect class="st0" width="940" height="180"/>
<path class="st1" d="M743.2,98.2c-0.6,2.6-1.2,5.2-1.8,7.9c-3.2,0.2-6.5,0.2-9.7,0.7c-4.8,0.8-5,1.1-5.6,5.8
	c-1.3,8.7-2.6,17.5-3.7,26.2c-0.3,2.6-1.2,4-4.1,3.6c-2.3-0.2-4.7-0.2-7-0.1c0.5-4.1,1-7.7,1.5-11.4c1.4-10,2.9-19.9,4.3-29.9
	c0.3-1.8,0.9-2.6,2.8-2.5c0.7,0.1,1.5,0.1,2.2,0c2.4-0.2,4.6-0.1,4.9,2.6c3.2-1.3,6.3-2.8,9.5-3.6c2.1-0.5,4.5,0,6.8,0.1L743.2,98.2
	z"/>
<path class="st1" d="M187.6,20.9c8.6,6.1,17.8,20.3,13.2,35.2c-1.6,5.1-2.5,10.5-2.7,15.8c-0.2,5.4,4.4,10.1,9.2,10.7
	c6.2,0.8,10.7-2.7,12-9.6c2.3,1.4,4.6,2.6,6.7,4.1c8.1,5.5,14.9,12.2,18.8,21.3c6.8,16,4.2,30.8-7.3,43.8
	c-7.4,8.4-16.9,13.7-28.4,17.4c1-0.8,1.3-1.1,1.6-1.3s0.9-0.5,1.3-0.8c15.1-9.7,18.1-26.4,6.6-40.2c-4.1-4.9-9.6-8.8-14.9-12.7
	c-4.1-3.1-8.8-5.6-13.2-8.3c-1.4-0.9-2.7-1.9-4-3c-3.8-3.3-7-6.9-6.4-12.5c-4.8,2.3-8.1,10.6-6.7,16.5c1.2,5.1,4.3,8.9,7.7,12.6
	c2.3,2.5,3.9,5.4,3.8,8.9c0.1,4.7-3.6,8.6-8.3,8.7c-0.1,0-0.2,0-0.4,0c-5.3,0.2-9.6-3.5-9.8-8.4c-0.1-1.7,0.2-3.5,0.3-5.9
	c-8.1,6-13.7,13.1-14.7,22.9c-1,10.2,4.8,17.2,12.7,23.2c-14.8-2.5-29.5-17.1-32.7-32c-3.5-16,1.2-30,9.9-43.1
	c6.6-10.1,15.3-18.3,24.2-26.4c3.9-3.5,8-6.8,11.4-10.7c3.2-3.7,6.1-7.7,8.5-11.9C188.5,30.8,189.1,25.6,187.6,20.9z"/>
<path class="st1" d="M552.8,106.3c0,0.3-0.2,0.5-0.1,0.7c3.1,14.5-6,21.8-18.5,22.3c-3,0.1-6-0.5-9-0.5c-1.2,0-2.3,1-3.5,1.5
	c0.9,0.8,1.8,2,2.8,2.2c5.6,1.2,11.3,2.1,16.8,3.3c4.5,1,8.9,2.5,9.8,7.8c1,5.9-0.7,11.1-6,14.3c-2.8,1.8-6,2.9-9.3,3.2
	c-5.9,0.5-11.8,0.4-17.7-0.3c-5.1-0.7-9.5-3.4-10.8-9.1s0.5-10.7,4.9-14.6c1.5-1.3,2.5-2.2,1.5-4.6c-1.4-3.6,1.2-5.8,3.2-7.4
	c-0.6-4.1-1.9-7.9-1.6-11.6c0.6-8.6,6.8-14.6,15.7-16c5.3-1,10.8-0.5,15.9,1.4c1.2,0.4,2.6,0.2,3.7-0.4c3.4-2,6.9-1.8,11-1.4
	c-0.8,2.6-1.4,5.1-2.4,7.5c-0.5,0.8-1.4,1.3-2.3,1.4C555.6,106.4,554.2,106.4,552.8,106.3z M528.2,154.2l0.2,0.3
	c3.1-0.8,6.3-1.2,9.2-2.4c2.7-1.1,3.7-3.6,3.3-6.5c-0.4-2.6-2.5-3-4.6-3.4c-4.1-0.8-8.1-1.6-12.2-2.3c-1.1-0.2-2.6-0.4-3.3,0.1
	c-2.5,2-3.7,5.2-3.3,8.3c0.3,2.9,2.2,4.4,4.9,4.9C524.3,153.7,526.2,153.9,528.2,154.2L528.2,154.2z M535.5,105.5
	c-6.1,0-10,3.7-10,9.5c0,4.1,2.7,6.3,7.6,6.3c6.1,0,10-3.8,9.9-9.6C543,107.6,540.5,105.5,535.5,105.5L535.5,105.5z"/>
<path class="st1" d="M426.1,98.9c0.9-6.1,1.7-12,2.7-18c0.2-1,0.9-1.7,1.9-2.1c2.7-0.3,5.4-0.1,8.8-0.1c-3,21.3-6,42.2-9,63
	c-5.3,1.3-7,0.8-8.8-2.3c-0.4,0.2-0.9,0.4-1.3,0.7c-6.4,4.4-13.1,4.6-19.8,1.1s-7.8-9.8-7.3-16.4c0.4-4.8,1.4-9.5,2.9-14
	c4.1-12.9,17-15.3,27.2-12.7C424.3,98.3,425.2,98.6,426.1,98.9z M403,126.5c0.7,3.2,0.8,6.3,3.9,8.1s11.2,0.9,13.7-1.5
	c0.5-0.5,0.8-1.2,0.8-1.9c1.1-7.4,2.2-14.8,3.3-22.2c0.1-0.8-0.2-1.5-0.7-2.1c-5.1-4-14.8-1.8-17.1,4.3
	C405.1,116,404.3,121.3,403,126.5z"/>
<path class="st1" d="M337.8,125.3l6.9,4.7c-4.3,7.3-10.3,11.7-18.3,12.9c-3.4,0.5-6.8,0.6-10.2,0.2c-9.8-1.1-15.7-7.1-16.6-16.9
	c-1-9.6,0.4-19.2,4-28.2c5.6-13.8,22.5-20.3,36-13.9c6.4,3,10,9.9,8.7,16.9H339c-0.2-0.3-0.4-0.4-0.4-0.6c-0.5-4.8-2.5-8.4-7.8-9
	c-6.1-0.7-12.2-0.1-15.3,5.8c-2.4,4.9-4.1,10.2-4.9,15.6c-0.7,4.7-0.8,9.5-0.1,14.2c0.6,4.8,4.1,7.2,8.9,7.7
	c6.9,0.7,12.5-1.7,16.6-7.2C336.5,126.8,337.1,126.2,337.8,125.3z"/>
<path class="st1" d="M705,132.4c-4.7,8.3-12,11-20.6,11.1c-9.2,0.1-15.3-3.8-16.9-11.3c-2-9.6-0.6-19,5-27.2
	c4.9-7.2,12.7-8.3,20.6-7.8c11.7,0.8,15.3,9,14.6,18.6c-0.6,8.3,1.2,7.2-7.7,7.3c-6.6,0-13.1,0.1-19.7,0c-2.5-0.1-3.2,1-3.3,3.3
	c-0.2,5.8,2.5,8.7,8.4,8.8c3.8,0.1,7.4-0.8,9.8-3.8c1.6-2,3.1-2,5.1-1C701.7,131.2,703.1,131.7,705,132.4z M679,115.9
	c5.7,0,11.2,0.1,16.7-0.1c0.6,0,1.5-1,1.7-1.7c0.9-3.7-1.3-7.4-5-8.4c-0.4-0.1-0.9-0.2-1.4-0.2C684.2,105,680.2,108.2,679,115.9z"/>
<path class="st1" d="M477.4,132.4c-4.5,8-13.3,12.1-22.8,11c-10.3-1.2-15.3-6.1-15.2-16.5c0.1-5.9,1.2-11.7,3.2-17.3
	c3.6-10,12.5-13,23.2-12.3c11.8,0.8,15,9.6,14.5,19.1c-0.4,6.8-0.7,6.8-7.6,6.8c-6.7,0-13.3,0.1-20,0c-2.4-0.1-3,1-3.2,3.1
	c-0.3,5.7,2.5,8.8,8.3,9c3.9,0.1,7.6-0.8,10.1-3.9c1.5-1.9,2.9-1.9,4.8-0.9C474.1,131.1,475.6,131.7,477.4,132.4z M451.6,115.9
	c5.5,0,11,0,16.5-0.1c0.7-0.2,1.4-0.7,1.6-1.4c1-3.8-1.2-7.7-5-8.8C457.8,104,452.1,108.3,451.6,115.9z"/>
<path class="st1" d="M348.4,125.4c0.8-4.1,1.3-8.2,2.4-12.2c3.4-12.4,11.8-16.8,24.1-15.9c10.8,0.8,15.8,6.6,15.5,17.5
	c-0.1,4.1-0.7,8.3-1.8,12.3c-3.3,12.6-12,17.2-24.5,16.3C353.7,142.6,348.8,136.5,348.4,125.4z M358.6,125.4
	c0.5,5.5,1.9,8.1,5.3,9.3c5.3,1.8,11.2-0.2,12.9-5.5c1.6-5.2,2.5-10.6,2.9-16.1c0.4-2.9-1.2-5.7-3.9-6.9c-5.2-2.3-11.6-0.2-13.6,5.1
	C360.6,115.8,359.8,120.7,358.6,125.4z"/>
<path class="st1" d="M574.3,101.7c3.9-1.5,7.5-3.4,11.2-4.1c9.3-1.9,16,3.5,15.3,12.9c-0.8,10.5-2.7,21-4.1,31.6h-10.4
	c0.3-2.7,0.6-5.2,1-7.8c0.9-6.6,1.9-13.2,2.8-19.8c0.2-1.6,0.2-3.1,0-4.7c-0.3-2.7-2-4.8-4.7-4.3c-3.6,0.7-7.1,1.8-10.5,3.3
	c-0.7,0.3-1.1,1.9-1.3,2.9c-1.5,9.6-2.8,19.1-4.3,28.7c-0.1,0.5-0.2,1-0.4,1.6h-10.2c0.5-3.4,0.9-6.7,1.3-9.9
	c1.5-10.5,2.9-21,4.5-31.5c0.1-0.8,1.4-1.7,2.3-2.2c0.7-0.3,1.6,0,2.5-0.1C572.1,98.2,574.3,98.5,574.3,101.7z"/>
<path class="st1" d="M639.9,106.5l-6.4-0.3c0.1-1.2,0.2-2.1,0.3-3c0.5-4.5,0.5-4.6,4.9-4.6c1.8,0,2.6-0.6,2.8-2.5c0.3-3,0.9-6,1.2-9
	c0.2-2,0.9-3.2,3-3.7c2.7-0.6,5.3-1.4,8.4-2.2c-0.8,5.9-1.6,11.3-2.4,17.2h15c-1.3,2.8-2.1,5-3.3,7c-0.3,0.6-1.6,0.9-2.4,0.9
	c-2.6,0.1-5.2,0.1-7.8,0c-1.7,0-2.7,0.4-3,2.3c-1,7.4-2.2,14.8-3.2,22.2c-0.4,2.8,1.2,4.5,4,4.3s5.4-1.1,8.7-1.9l4.4,5.3
	c-6.9,4.8-14.1,6.4-21.8,3.7c-3.9-1.1-6.4-5-5.8-9C637.4,124.4,638.7,115.6,639.9,106.5z"/>
<path class="st1" d="M481.9,142.3c0.1-1.6,0.1-2.7,0.2-3.8c0.1-2,1-3.1,3.1-2.7c2.7,0.5,3.5-0.7,3.9-3.4c1.9-13.5,3.9-27,5.9-40.4
	c0-0.6,0-1.2-0.1-1.8l-5.5-0.5c0.3-2.1,0.5-4,0.8-6.1h22.4c-0.1,1.4-0.2,2.7-0.3,3.9c-0.1,1.8-0.9,2.8-2.7,2.4
	c-3.2-0.5-3.9,1-4.3,3.9c-1.8,13.4-3.9,26.8-5.8,40.1c0,0.5,0,1.1,0.1,1.6l5.2,0.3c0.1,0.3,0.2,0.7,0.2,1c-0.3,5.4-0.3,5.4-5.7,5.4
	L481.9,142.3z"/>
<path class="st1" d="M615,106.5l-7.1-0.3c0.3-2.2,0.4-4.2,0.8-6.2c0.3-0.7,0.9-1.3,1.6-1.4c5.2-0.1,10.4-0.1,16.1-0.1
	c-0.5,3.8-1,7.2-1.5,10.5c-0.9,6.6-1.8,13.2-2.7,19.8c-0.7,5.2-0.7,5.2,4.5,6.1c-0.3,2.2-0.5,4.4-1,6.6c-0.3,0.7-0.9,1.2-1.7,1.4
	c-2,0.2-4,0.2-5.9-0.1c-5.3-0.7-7.8-4-7.2-9.4c0.5-4.4,1.2-8.9,1.8-13.3S614.2,111.4,615,106.5z"/>
<path class="st1" d="M629.4,78.8c-0.5,3.6-0.9,6.7-1.5,9.7c-0.2,0.7-0.8,1.2-1.5,1.4C623.2,90,620,90,616.3,90
	c0.5-3.5,0.9-6.8,1.5-10c0.3-0.6,0.8-1,1.5-1.2C622.5,78.7,625.7,78.8,629.4,78.8z"/>
<path class="st1" d="M799.2,118.8l5.4-37.2h-13.7l-28.1,38.8l-1.1,7.6H786l-1.5,10.1h11.9l1.5-10.1h6.8l1.3-9.1H799.2z M787.3,118.8
	H774l16.6-23L787.3,118.8z"/>
</svg>
