<svg xmlns="http://www.w3.org/2000/svg" viewBox="0 0 527.97 700.46"><defs><style>.cls-1{fill:#231f20;}.cls-2{fill:#f7cc54;}.cls-3{fill:#ffe89b;}.cls-4{fill:#fbc926;}</style></defs><title>karcaqs</title><g id="Layer_4" data-name="Layer 4"><rect class="cls-1" x="-378.97" y="-55.99" width="1280" height="1024"/></g><g id="Layer_2" data-name="Layer 2"><polygon class="cls-2" points="446.81 100.63 393.25 215.96 378.91 189.43 410.66 120.2 446.81 100.63"/><polygon class="cls-3" points="446.81 100.63 410.66 120.2 377.17 118.04 355.4 91.05 446.81 100.63"/><polygon class="cls-3" points="378.91 189.43 393.25 215.96 143.4 215.96 156.88 189.43 378.91 189.43"/><polygon class="cls-2" points="355.4 91.05 377.17 118.04 366.26 161.12 347.11 130.23 355.4 91.05"/><polygon class="cls-3" points="347.11 130.23 366.26 161.12 291.4 144.57 320.68 123.58 347.11 130.23"/><polygon class="cls-4" points="267.93 11.38 326.67 84.96 299.23 93.77 267.89 53.62 267.93 11.38"/><polygon class="cls-2" points="326.67 84.96 320.68 123.58 291.4 144.57 299.23 93.77 326.67 84.96"/><polygon class="cls-3" points="267.93 11.38 267.89 53.62 235.68 91.92 208.27 84.96 267.93 11.38"/><polygon class="cls-2" points="235.68 91.92 247.41 144.57 214.33 123.68 208.27 84.96 235.68 91.92"/><polygon class="cls-3" points="247.41 144.57 169.97 162.86 188.67 130.23 214.33 123.68 247.41 144.57"/><polygon class="cls-2" points="178.67 91.05 188.67 130.23 169.97 162.86 156.88 117.59 178.67 91.05"/><polygon class="cls-3" points="178.67 91.05 156.88 117.59 125.22 121.52 87.68 102.79 178.67 91.05"/><polygon class="cls-2" points="125.22 121.52 156.88 189.43 143.4 215.96 87.68 102.79 125.22 121.52"/><polygon class="cls-2" points="93.78 449.94 93.78 485.56 11.07 405.47 31.27 385.9 49.1 404.6 65.64 422.29 93.78 449.94"/><polygon class="cls-3" points="93.78 384.26 93.78 449.94 65.64 422.29 65.64 408.95 93.78 384.26"/><polygon class="cls-4" points="93.78 325.38 93.78 360.2 49.1 404.6 31.27 385.9 93.78 325.38"/><polygon class="cls-4" points="347.84 593.93 287.04 656.72 268.62 638.64 313.02 593.93 347.84 593.93"/><polygon class="cls-3" points="288.92 593.93 264.27 622.1 250.93 622.1 223.77 593.93 288.92 593.93"/><polygon class="cls-2" points="287.04 656.72 267.75 676.63 187.66 593.93 223.77 593.93 250.93 622.1 268.62 638.64 287.04 656.72"/><polygon class="cls-2" points="511.06 405.47 428.36 485.56 428.36 449.07 456.53 422.29 473.07 404.6 491.66 386.66 511.06 405.47"/><polygon class="cls-4" points="491.66 386.66 473.07 404.6 428.36 360.2 428.36 325.38 491.66 386.66"/><polygon class="cls-3" points="456.53 408.95 456.53 422.29 428.36 449.07 428.36 384.26 456.53 408.95"/></g><g id="Layer_3" data-name="Layer 3"><polygon class="cls-3" points="419.79 534.59 419.79 562.17 274.86 562.17 303.17 534.17 419.79 534.59"/><polygon class="cls-3" points="419.79 249.5 419.79 277.77 314.03 277.36 285.3 249.5 419.79 249.5"/><polygon class="cls-4" points="393.74 311.31 394.4 327.99 324.02 395.3 393.25 483.68 393.71 496.74 365.39 496.74 288.78 392.27 369.3 311.31 393.74 311.31"/><polygon class="cls-3" points="393.74 349.19 393.25 459.17 369.3 431.45 369.3 374.41 393.74 349.19"/><polygon class="cls-4" points="314.03 277.36 314.03 310.58 152.97 466.27 125.22 451.47 243.83 338.89 256.82 326.56 285.3 299.54 285.3 249.5 314.03 277.36"/><polygon class="cls-4" points="256.12 422.74 311.42 499.35 303.17 499.35 303.17 534.17 274.86 562.17 274.86 494.55 251.63 463.48 239.75 476.86 253.68 476.86 253.68 562.17 226.1 534.59 225.69 503.7 212.17 503.7 213.04 464.53 256.12 422.74"/><polygon class="cls-3" points="253.68 562.17 115.09 562.17 115.09 534.59 226.1 534.59 253.68 562.17"/><polygon class="cls-2" points="253.09 249.5 253.09 322.63 238.29 322.63 238.29 333.07 212.63 356.58 213.5 314.34 225.69 308.7 226.1 276.9 253.09 249.5"/><polygon class="cls-3" points="253.09 249.5 226.1 276.9 115.09 276.9 115.09 249.5 253.09 249.5"/><polygon class="cls-2" points="152.97 466.27 152.97 503.7 125.22 503.7 125.22 451.47 152.97 466.27"/><polygon class="cls-4" points="152.97 307.82 152.97 411.84 125.22 437.54 125.22 307.82 152.97 307.82"/></g></svg>