<svg id="Layer_1" data-name="Layer 1" xmlns="http://www.w3.org/2000/svg" viewBox="0 0 48 48"><defs><style>.cls-1{fill:lime;}.cls-2{fill:#e6e6e6;}</style></defs><title>Artboard 3</title><rect class="cls-1" x="1.3" y="1.3" width="45.41" height="45.41" rx="2.8" ry="2.8"/><path class="cls-2" d="M43.41,10.77h0a2.48,2.48,0,0,0-3.51,0L20.45,30.22a2.48,2.48,0,0,1-3.51,0L8.1,21.37a2.48,2.48,0,0,0-3.51,0h0a2.48,2.48,0,0,0,0,3.51L16.94,37.23a2.48,2.48,0,0,0,3.51,0l23-22.95A2.48,2.48,0,0,0,43.41,10.77Z"/></svg>