<svg id="Layer_1" data-name="Layer 1" xmlns="http://www.w3.org/2000/svg" viewBox="0 0 35.86 46.47"><defs><style>.cls-1{fill:#fff;}.cls-1,.cls-2{fill-rule:evenodd;}</style></defs><title>file-icon</title><path class="cls-1" d="M33.73.76H7.5A1.43,1.43,0,0,0,6.07,2.19V45.81A1.43,1.43,0,0,0,7.5,47.24h33a1.43,1.43,0,0,0,1.42-1.43V9.47s0-.05,0-.07V9Z" transform="translate(-6.07 -0.76)"/><path d="M36.4,16.56H11.6a1,1,0,0,1,0-2H36.4a1,1,0,0,1,0,2Z" transform="translate(-6.07 -0.76)"/><path d="M36.4,22.89H11.6a1,1,0,0,1,0-2H36.4a1,1,0,0,1,0,2Z" transform="translate(-6.07 -0.76)"/><path d="M36.4,29.21H11.6a1,1,0,0,1,0-2H36.4a1,1,0,0,1,0,2Z" transform="translate(-6.07 -0.76)"/><path d="M36.4,35.54H11.6a1,1,0,0,1,0-2H36.4a1,1,0,0,1,0,2Z" transform="translate(-6.07 -0.76)"/><path class="cls-2" d="M33.73.76H7.5A1.43,1.43,0,0,0,6.07,2.19V45.81A1.43,1.43,0,0,0,7.5,47.24h33a1.43,1.43,0,0,0,1.43-1.43V9Zm6.2,44.48H8.07V2.76H31.84V9.4a1.46,1.46,0,0,0,1.46,1.46h6.63Z" transform="translate(-6.07 -0.76)"/><path class="cls-2" d="M41.64,1.36A1.62,1.62,0,0,0,41.32,1Z" transform="translate(-6.07 -0.76)"/></svg>