<svg id="Layer_1" data-name="Layer 1" xmlns="http://www.w3.org/2000/svg" viewBox="0 0 50 42"><title>icons8-folder</title><path d="M5,0A3,3,0,0,0,2,3V39a3,3,0,0,0,3,3H45a3,3,0,0,0,3-3V7a3,3,0,0,0-3-3H18c.09,0,0,0-.28-.28a11.44,11.44,0,0,1-.85-1.25A12.5,12.5,0,0,0,15.81,1,2.43,2.43,0,0,0,14,0ZM5,2h9c-.06,0,.06,0,.31.29a9.88,9.88,0,0,1,.86,1.24,12.21,12.21,0,0,0,1,1.5A2.38,2.38,0,0,0,18,6H45a1,1,0,0,1,1,1V9.19A2.78,2.78,0,0,0,45,9H5a2.78,2.78,0,0,0-1,.19V3A1,1,0,0,1,5,2Zm0,9H45a1,1,0,0,1,1,1V39a1,1,0,0,1-1,1H5a1,1,0,0,1-1-1V12A1,1,0,0,1,5,11Z"/></svg>